<svg width="230" height="50" viewBox="0 0 230 50" fill="none" xmlns="http://www.w3.org/2000/svg">
<rect width="230" height="50" rx="10" fill="#1B496A"/>
<path d="M20.0909 30.5H16.1477V18.8636H20.1705C21.3258 18.8636 22.3182 19.0966 23.1477 19.5625C23.9811 20.0246 24.6212 20.6894 25.0682 21.5568C25.5152 22.4242 25.7386 23.4621 25.7386 24.6705C25.7386 25.8826 25.5133 26.9242 25.0625 27.7955C24.6155 28.6667 23.9697 29.3352 23.125 29.8011C22.2841 30.267 21.2727 30.5 20.0909 30.5ZM18.2557 28.6761H19.9886C20.7992 28.6761 21.4754 28.5284 22.017 28.233C22.5587 27.9337 22.9659 27.4886 23.2386 26.8977C23.5114 26.303 23.6477 25.5606 23.6477 24.6705C23.6477 23.7803 23.5114 23.0417 23.2386 22.4545C22.9659 21.8636 22.5625 21.4223 22.0284 21.1307C21.4981 20.8352 20.839 20.6875 20.0511 20.6875H18.2557V28.6761ZM31.5142 30.6705C30.6392 30.6705 29.8835 30.4886 29.2472 30.125C28.6146 29.7576 28.1278 29.2386 27.7869 28.5682C27.446 27.8939 27.2756 27.1004 27.2756 26.1875C27.2756 25.2898 27.446 24.5019 27.7869 23.8239C28.1316 23.142 28.6127 22.6117 29.2301 22.233C29.8475 21.8504 30.5729 21.6591 31.4062 21.6591C31.9441 21.6591 32.4517 21.7462 32.929 21.9205C33.41 22.0909 33.8343 22.3561 34.2017 22.7159C34.5729 23.0758 34.8646 23.5341 35.0767 24.0909C35.2888 24.6439 35.3949 25.303 35.3949 26.0682V26.6989H28.2415V25.3125H33.4233C33.4195 24.9186 33.3343 24.5682 33.1676 24.2614C33.0009 23.9508 32.768 23.7064 32.4688 23.5284C32.1733 23.3504 31.8286 23.2614 31.4347 23.2614C31.0142 23.2614 30.6449 23.3636 30.3267 23.5682C30.0085 23.7689 29.7604 24.0341 29.5824 24.3636C29.4081 24.6894 29.3191 25.0473 29.3153 25.4375V26.6477C29.3153 27.1553 29.4081 27.5909 29.5938 27.9545C29.7794 28.3144 30.0388 28.5909 30.3722 28.7841C30.7055 28.9735 31.0956 29.0682 31.5426 29.0682C31.8419 29.0682 32.1127 29.0265 32.3551 28.9432C32.5975 28.8561 32.8078 28.7292 32.9858 28.5625C33.1638 28.3958 33.2983 28.1894 33.3892 27.9432L35.3097 28.1591C35.1884 28.6667 34.9574 29.1098 34.6165 29.4886C34.2794 29.8636 33.8475 30.1553 33.321 30.3636C32.7945 30.5682 32.1922 30.6705 31.5142 30.6705ZM37.1349 33.7727V21.7727H39.1577V23.2159H39.277C39.383 23.0038 39.5327 22.7784 39.7259 22.5398C39.919 22.2973 40.1804 22.0909 40.5099 21.9205C40.8395 21.7462 41.2599 21.6591 41.7713 21.6591C42.4455 21.6591 43.0535 21.8314 43.5952 22.1761C44.1406 22.517 44.5724 23.0227 44.8906 23.6932C45.2126 24.3598 45.3736 25.178 45.3736 26.1477C45.3736 27.1061 45.2164 27.9205 44.902 28.5909C44.5876 29.2614 44.1596 29.7727 43.6179 30.125C43.0762 30.4773 42.4626 30.6534 41.777 30.6534C41.277 30.6534 40.8622 30.5701 40.5327 30.4034C40.2031 30.2367 39.938 30.036 39.7372 29.8011C39.5402 29.5625 39.3868 29.3371 39.277 29.125H39.1918V33.7727H37.1349ZM39.152 26.1364C39.152 26.7008 39.2315 27.1951 39.3906 27.6193C39.5535 28.0436 39.7865 28.375 40.0895 28.6136C40.3963 28.8485 40.7675 28.9659 41.2031 28.9659C41.6577 28.9659 42.0384 28.8447 42.3452 28.6023C42.652 28.3561 42.883 28.0208 43.0384 27.5966C43.1974 27.1686 43.277 26.6818 43.277 26.1364C43.277 25.5947 43.1993 25.1136 43.044 24.6932C42.8887 24.2727 42.6577 23.9432 42.3509 23.7045C42.044 23.4659 41.6615 23.3466 41.2031 23.3466C40.7637 23.3466 40.3906 23.4621 40.0838 23.6932C39.777 23.9242 39.544 24.2481 39.3849 24.6648C39.2296 25.0814 39.152 25.572 39.152 26.1364ZM49.1918 18.8636V30.5H47.1349V18.8636H49.1918ZM55.1136 30.6705C54.2614 30.6705 53.5227 30.483 52.8977 30.108C52.2727 29.733 51.7879 29.2083 51.4432 28.5341C51.1023 27.8598 50.9318 27.072 50.9318 26.1705C50.9318 25.2689 51.1023 24.4792 51.4432 23.8011C51.7879 23.1231 52.2727 22.5966 52.8977 22.2216C53.5227 21.8466 54.2614 21.6591 55.1136 21.6591C55.9659 21.6591 56.7045 21.8466 57.3295 22.2216C57.9545 22.5966 58.4375 23.1231 58.7784 23.8011C59.1231 24.4792 59.2955 25.2689 59.2955 26.1705C59.2955 27.072 59.1231 27.8598 58.7784 28.5341C58.4375 29.2083 57.9545 29.733 57.3295 30.108C56.7045 30.483 55.9659 30.6705 55.1136 30.6705ZM55.125 29.0227C55.5871 29.0227 55.9735 28.8958 56.2841 28.642C56.5947 28.3845 56.8258 28.0398 56.9773 27.608C57.1326 27.1761 57.2102 26.6951 57.2102 26.1648C57.2102 25.6307 57.1326 25.1477 56.9773 24.7159C56.8258 24.2803 56.5947 23.9337 56.2841 23.6761C55.9735 23.4186 55.5871 23.2898 55.125 23.2898C54.6515 23.2898 54.2576 23.4186 53.9432 23.6761C53.6326 23.9337 53.3996 24.2803 53.2443 24.7159C53.0928 25.1477 53.017 25.6307 53.017 26.1648C53.017 26.6951 53.0928 27.1761 53.2443 27.608C53.3996 28.0398 53.6326 28.3845 53.9432 28.642C54.2576 28.8958 54.6515 29.0227 55.125 29.0227ZM62.0227 33.7727C61.7424 33.7727 61.483 33.75 61.2443 33.7045C61.0095 33.6629 60.822 33.6136 60.6818 33.5568L61.1591 31.9545C61.4583 32.0417 61.7254 32.0833 61.9602 32.0795C62.1951 32.0758 62.4015 32.0019 62.5795 31.858C62.7614 31.7178 62.9148 31.483 63.0398 31.1534L63.2159 30.6818L60.0511 21.7727H62.233L64.2443 28.3636H64.3352L66.3523 21.7727H68.5398L65.0455 31.5568C64.8826 32.0189 64.6667 32.4148 64.3977 32.7443C64.1288 33.0777 63.7992 33.3314 63.4091 33.5057C63.0227 33.6837 62.5606 33.7727 62.0227 33.7727Z" fill="white"/>
<path fill-rule="evenodd" clip-rule="evenodd" d="M185 10H215V40H185V10Z" fill="white" fill-opacity="0.01"/>
<path d="M201.4 20.2332L196.129 14.9626C194.466 13.2993 191.733 13.3359 190.024 15.0445C188.316 16.753 188.279 19.4865 189.942 21.1498L194.46 25.6674" stroke="white" stroke-width="2.98282" stroke-linecap="round" stroke-linejoin="round"/>
<path d="M205.564 24.377L210.082 28.8947C211.745 30.558 211.709 33.2915 210 35C208.291 36.7085 205.558 36.7452 203.895 35.0818L198.624 29.8113" stroke="white" stroke-width="2.98282" stroke-linecap="round" stroke-linejoin="round"/>
<path d="M201.318 26.3385C203.027 24.63 203.063 21.8965 201.4 20.2332" stroke="white" stroke-width="2.98282" stroke-linecap="round" stroke-linejoin="round"/>
<path d="M198.624 23.6241C196.916 25.3326 196.879 28.0661 198.542 29.7294" stroke="white" stroke-width="2.98282" stroke-linecap="round" stroke-linejoin="round"/>
</svg>
