<svg width="230" height="50" viewBox="0 0 230 50" fill="none" xmlns="http://www.w3.org/2000/svg">
<rect width="230" height="50" rx="10" fill="#1B6A23"/>
<path d="M23.9432 22.5795C23.8485 22.2727 23.7178 21.9981 23.5511 21.7557C23.3883 21.5095 23.1913 21.2992 22.9602 21.125C22.733 20.9508 22.4716 20.8201 22.1761 20.733C21.8807 20.642 21.5587 20.5966 21.2102 20.5966C20.5852 20.5966 20.0284 20.7538 19.5398 21.0682C19.0511 21.3826 18.6667 21.8447 18.3864 22.4545C18.1098 23.0606 17.9716 23.7992 17.9716 24.6705C17.9716 25.5492 18.1098 26.2936 18.3864 26.9034C18.6629 27.5133 19.0473 27.9773 19.5398 28.2955C20.0322 28.6098 20.6042 28.767 21.2557 28.767C21.8466 28.767 22.358 28.6534 22.7898 28.4261C23.2254 28.1989 23.5606 27.8769 23.7955 27.4602C24.0303 27.0398 24.1477 26.5473 24.1477 25.983L24.625 26.0568H21.4659V24.4091H26.1875V25.8068C26.1875 26.803 25.9754 27.6648 25.5511 28.392C25.1269 29.1193 24.5436 29.6799 23.8011 30.0739C23.0587 30.464 22.2064 30.6591 21.2443 30.6591C20.1723 30.6591 19.2311 30.4186 18.4205 29.9375C17.6136 29.4527 16.983 28.7652 16.5284 27.875C16.0777 26.9811 15.8523 25.9205 15.8523 24.6932C15.8523 23.7538 15.9848 22.9148 16.25 22.1761C16.5189 21.4375 16.8939 20.8106 17.375 20.2955C17.8561 19.7765 18.4205 19.3826 19.0682 19.1136C19.7159 18.8409 20.4205 18.7045 21.1818 18.7045C21.8258 18.7045 22.4261 18.7992 22.983 18.9886C23.5398 19.1742 24.0341 19.4394 24.4659 19.7841C24.9015 20.1288 25.2595 20.5379 25.5398 21.0114C25.8201 21.4848 26.0038 22.0076 26.0909 22.5795H23.9432ZM28.6818 30.5V21.7727H30.7386V30.5H28.6818ZM29.7159 20.5341C29.3902 20.5341 29.1098 20.4261 28.875 20.2102C28.6402 19.9905 28.5227 19.7273 28.5227 19.4205C28.5227 19.1098 28.6402 18.8466 28.875 18.6307C29.1098 18.411 29.3902 18.3011 29.7159 18.3011C30.0455 18.3011 30.3258 18.411 30.5568 18.6307C30.7917 18.8466 30.9091 19.1098 30.9091 19.4205C30.9091 19.7273 30.7917 19.9905 30.5568 20.2102C30.3258 20.4261 30.0455 20.5341 29.7159 20.5341ZM37.2116 21.7727V23.3636H32.1946V21.7727H37.2116ZM33.4332 19.6818H35.4901V27.875C35.4901 28.1515 35.5317 28.3636 35.6151 28.5114C35.7022 28.6553 35.8158 28.7538 35.956 28.8068C36.0961 28.8598 36.2514 28.8864 36.4219 28.8864C36.5507 28.8864 36.6681 28.8769 36.7741 28.858C36.884 28.839 36.9673 28.822 37.0241 28.8068L37.3707 30.4148C37.2609 30.4527 37.1037 30.4943 36.8991 30.5398C36.6984 30.5852 36.4522 30.6117 36.1605 30.6193C35.6454 30.6345 35.1813 30.5568 34.7685 30.3864C34.3556 30.2121 34.0279 29.9432 33.7855 29.5795C33.5469 29.2159 33.4295 28.7614 33.4332 28.2159V19.6818ZM41.1761 25.3864V30.5H39.1193V18.8636H41.1307V23.2557H41.233C41.4375 22.7633 41.7538 22.375 42.1818 22.0909C42.6136 21.803 43.1629 21.6591 43.8295 21.6591C44.4356 21.6591 44.964 21.786 45.4148 22.0398C45.8655 22.2936 46.214 22.6648 46.4602 23.1534C46.7102 23.642 46.8352 24.2386 46.8352 24.9432V30.5H44.7784V25.2614C44.7784 24.6742 44.6269 24.2178 44.3239 23.892C44.0246 23.5625 43.6042 23.3977 43.0625 23.3977C42.6989 23.3977 42.3731 23.4773 42.0852 23.6364C41.8011 23.7917 41.5777 24.017 41.4148 24.3125C41.2557 24.608 41.1761 24.9659 41.1761 25.3864ZM54.4943 26.8295V21.7727H56.5511V30.5H54.5568V28.9489H54.4659C54.2689 29.4375 53.9451 29.8371 53.4943 30.1477C53.0473 30.4583 52.4962 30.6136 51.8409 30.6136C51.2689 30.6136 50.7633 30.4867 50.3239 30.233C49.8883 29.9754 49.5473 29.6023 49.3011 29.1136C49.0549 28.6212 48.9318 28.0265 48.9318 27.3295V21.7727H50.9886V27.0114C50.9886 27.5644 51.1402 28.0038 51.4432 28.3295C51.7462 28.6553 52.1439 28.8182 52.6364 28.8182C52.9394 28.8182 53.233 28.7443 53.517 28.5966C53.8011 28.4489 54.0341 28.2292 54.2159 27.9375C54.4015 27.642 54.4943 27.2727 54.4943 26.8295ZM58.7571 30.5V18.8636H60.8139V23.2159H60.8991C61.0052 23.0038 61.1548 22.7784 61.348 22.5398C61.5412 22.2973 61.8026 22.0909 62.1321 21.9205C62.4616 21.7462 62.8821 21.6591 63.3935 21.6591C64.0677 21.6591 64.6757 21.8314 65.2173 22.1761C65.7628 22.517 66.1946 23.0227 66.5128 23.6932C66.8348 24.3598 66.9957 25.178 66.9957 26.1477C66.9957 27.1061 66.8385 27.9205 66.5241 28.5909C66.2098 29.2614 65.7817 29.7727 65.2401 30.125C64.6984 30.4773 64.0848 30.6534 63.3991 30.6534C62.8991 30.6534 62.4844 30.5701 62.1548 30.4034C61.8253 30.2367 61.5601 30.036 61.3594 29.8011C61.1624 29.5625 61.009 29.3371 60.8991 29.125H60.7798V30.5H58.7571ZM60.7741 26.1364C60.7741 26.7008 60.8537 27.1951 61.0128 27.6193C61.1757 28.0436 61.4086 28.375 61.7116 28.6136C62.0185 28.8485 62.3897 28.9659 62.8253 28.9659C63.2798 28.9659 63.6605 28.8447 63.9673 28.6023C64.2741 28.3561 64.5052 28.0208 64.6605 27.5966C64.8196 27.1686 64.8991 26.6818 64.8991 26.1364C64.8991 25.5947 64.8215 25.1136 64.6662 24.6932C64.5109 24.2727 64.2798 23.9432 63.973 23.7045C63.6662 23.4659 63.2836 23.3466 62.8253 23.3466C62.3859 23.3466 62.0128 23.4621 61.706 23.6932C61.3991 23.9242 61.1662 24.2481 61.0071 24.6648C60.8518 25.0814 60.7741 25.572 60.7741 26.1364ZM76.7472 30.5H72.804V18.8636H76.8267C77.982 18.8636 78.9744 19.0966 79.804 19.5625C80.6373 20.0246 81.2775 20.6894 81.7244 21.5568C82.1714 22.4242 82.3949 23.4621 82.3949 24.6705C82.3949 25.8826 82.1695 26.9242 81.7188 27.7955C81.2718 28.6667 80.6259 29.3352 79.7812 29.8011C78.9403 30.267 77.929 30.5 76.7472 30.5ZM74.9119 28.6761H76.6449C77.4555 28.6761 78.1316 28.5284 78.6733 28.233C79.215 27.9337 79.6222 27.4886 79.8949 26.8977C80.1676 26.303 80.304 25.5606 80.304 24.6705C80.304 23.7803 80.1676 23.0417 79.8949 22.4545C79.6222 21.8636 79.2188 21.4223 78.6847 21.1307C78.1544 20.8352 77.4953 20.6875 76.7074 20.6875H74.9119V28.6761ZM88.1136 30.6705C87.2614 30.6705 86.5227 30.483 85.8977 30.108C85.2727 29.733 84.7879 29.2083 84.4432 28.5341C84.1023 27.8598 83.9318 27.072 83.9318 26.1705C83.9318 25.2689 84.1023 24.4792 84.4432 23.8011C84.7879 23.1231 85.2727 22.5966 85.8977 22.2216C86.5227 21.8466 87.2614 21.6591 88.1136 21.6591C88.9659 21.6591 89.7045 21.8466 90.3295 22.2216C90.9545 22.5966 91.4375 23.1231 91.7784 23.8011C92.1231 24.4792 92.2955 25.2689 92.2955 26.1705C92.2955 27.072 92.1231 27.8598 91.7784 28.5341C91.4375 29.2083 90.9545 29.733 90.3295 30.108C89.7045 30.483 88.9659 30.6705 88.1136 30.6705ZM88.125 29.0227C88.5871 29.0227 88.9735 28.8958 89.2841 28.642C89.5947 28.3845 89.8258 28.0398 89.9773 27.608C90.1326 27.1761 90.2102 26.6951 90.2102 26.1648C90.2102 25.6307 90.1326 25.1477 89.9773 24.7159C89.8258 24.2803 89.5947 23.9337 89.2841 23.6761C88.9735 23.4186 88.5871 23.2898 88.125 23.2898C87.6515 23.2898 87.2576 23.4186 86.9432 23.6761C86.6326 23.9337 86.3996 24.2803 86.2443 24.7159C86.0928 25.1477 86.017 25.6307 86.017 26.1648C86.017 26.6951 86.0928 27.1761 86.2443 27.608C86.3996 28.0398 86.6326 28.3845 86.9432 28.642C87.2576 28.8958 87.6515 29.0227 88.125 29.0227ZM98.1009 30.5V18.8636H102.464C103.358 18.8636 104.108 19.0303 104.714 19.3636C105.324 19.697 105.785 20.1553 106.095 20.7386C106.41 21.3182 106.567 21.9773 106.567 22.7159C106.567 23.4621 106.41 24.125 106.095 24.7045C105.781 25.2841 105.317 25.7405 104.703 26.0739C104.089 26.4034 103.334 26.5682 102.436 26.5682H99.544V24.8352H102.152C102.675 24.8352 103.103 24.7443 103.436 24.5625C103.769 24.3807 104.016 24.1307 104.175 23.8125C104.338 23.4943 104.419 23.1288 104.419 22.7159C104.419 22.303 104.338 21.9394 104.175 21.625C104.016 21.3106 103.768 21.0663 103.43 20.892C103.097 20.714 102.667 20.625 102.141 20.625H100.209V30.5H98.1009ZM108.307 30.5V21.7727H110.301V23.2273H110.392C110.551 22.7235 110.824 22.3352 111.21 22.0625C111.6 21.786 112.045 21.6477 112.545 21.6477C112.659 21.6477 112.786 21.6534 112.926 21.6648C113.07 21.6723 113.189 21.6856 113.284 21.7045V23.5966C113.197 23.5663 113.059 23.5398 112.869 23.517C112.684 23.4905 112.504 23.4773 112.33 23.4773C111.955 23.4773 111.617 23.5587 111.318 23.7216C111.023 23.8807 110.79 24.1023 110.619 24.3864C110.449 24.6705 110.364 24.9981 110.364 25.3693V30.5H108.307ZM118.098 30.6705C117.246 30.6705 116.507 30.483 115.882 30.108C115.257 29.733 114.772 29.2083 114.428 28.5341C114.087 27.8598 113.916 27.072 113.916 26.1705C113.916 25.2689 114.087 24.4792 114.428 23.8011C114.772 23.1231 115.257 22.5966 115.882 22.2216C116.507 21.8466 117.246 21.6591 118.098 21.6591C118.95 21.6591 119.689 21.8466 120.314 22.2216C120.939 22.5966 121.422 23.1231 121.763 23.8011C122.107 24.4792 122.28 25.2689 122.28 26.1705C122.28 27.072 122.107 27.8598 121.763 28.5341C121.422 29.2083 120.939 29.733 120.314 30.108C119.689 30.483 118.95 30.6705 118.098 30.6705ZM118.109 29.0227C118.571 29.0227 118.958 28.8958 119.268 28.642C119.579 28.3845 119.81 28.0398 119.962 27.608C120.117 27.1761 120.195 26.6951 120.195 26.1648C120.195 25.6307 120.117 25.1477 119.962 24.7159C119.81 24.2803 119.579 23.9337 119.268 23.6761C118.958 23.4186 118.571 23.2898 118.109 23.2898C117.636 23.2898 117.242 23.4186 116.928 23.6761C116.617 23.9337 116.384 24.2803 116.229 24.7159C116.077 25.1477 116.001 25.6307 116.001 26.1648C116.001 26.6951 116.077 27.1761 116.229 27.608C116.384 28.0398 116.617 28.3845 116.928 28.642C117.242 28.8958 117.636 29.0227 118.109 29.0227ZM124.026 21.7727H126.082V31C126.082 31.6288 125.963 32.1477 125.724 32.5568C125.486 32.9659 125.141 33.2708 124.69 33.4716C124.24 33.6723 123.692 33.7727 123.048 33.7727C122.973 33.7727 122.902 33.7708 122.838 33.767C122.774 33.767 122.704 33.7652 122.628 33.7614V32.0852C122.685 32.089 122.736 32.0909 122.781 32.0909C122.827 32.0947 122.874 32.0966 122.923 32.0966C123.317 32.0966 123.599 32 123.77 31.8068C123.94 31.6174 124.026 31.339 124.026 30.9716V21.7727ZM125.048 20.5341C124.719 20.5341 124.437 20.4261 124.202 20.2102C123.971 19.9905 123.855 19.7273 123.855 19.4205C123.855 19.1098 123.971 18.8466 124.202 18.6307C124.437 18.411 124.719 18.3011 125.048 18.3011C125.374 18.3011 125.652 18.411 125.884 18.6307C126.118 18.8466 126.236 19.1098 126.236 19.4205C126.236 19.7273 126.118 19.9905 125.884 20.2102C125.652 20.4261 125.374 20.5341 125.048 20.5341ZM132.061 30.6705C131.186 30.6705 130.43 30.4886 129.794 30.125C129.161 29.7576 128.675 29.2386 128.334 28.5682C127.993 27.8939 127.822 27.1004 127.822 26.1875C127.822 25.2898 127.993 24.5019 128.334 23.8239C128.679 23.142 129.16 22.6117 129.777 22.233C130.394 21.8504 131.12 21.6591 131.953 21.6591C132.491 21.6591 132.999 21.7462 133.476 21.9205C133.957 22.0909 134.381 22.3561 134.749 22.7159C135.12 23.0758 135.411 23.5341 135.624 24.0909C135.836 24.6439 135.942 25.303 135.942 26.0682V26.6989H128.788V25.3125H133.97C133.966 24.9186 133.881 24.5682 133.714 24.2614C133.548 23.9508 133.315 23.7064 133.016 23.5284C132.72 23.3504 132.375 23.2614 131.982 23.2614C131.561 23.2614 131.192 23.3636 130.874 23.5682C130.555 23.7689 130.307 24.0341 130.129 24.3636C129.955 24.6894 129.866 25.0473 129.862 25.4375V26.6477C129.862 27.1553 129.955 27.5909 130.141 27.9545C130.326 28.3144 130.586 28.5909 130.919 28.7841C131.252 28.9735 131.643 29.0682 132.089 29.0682C132.389 29.0682 132.66 29.0265 132.902 28.9432C133.144 28.8561 133.355 28.7292 133.533 28.5625C133.711 28.3958 133.845 28.1894 133.936 27.9432L135.857 28.1591C135.735 28.6667 135.504 29.1098 135.163 29.4886C134.826 29.8636 134.394 30.1553 133.868 30.3636C133.341 30.5682 132.739 30.6705 132.061 30.6705ZM142.04 21.7727V23.3636H137.023V21.7727H142.04ZM138.261 19.6818H140.318V27.875C140.318 28.1515 140.36 28.3636 140.443 28.5114C140.53 28.6553 140.644 28.7538 140.784 28.8068C140.924 28.8598 141.08 28.8864 141.25 28.8864C141.379 28.8864 141.496 28.8769 141.602 28.858C141.712 28.839 141.795 28.822 141.852 28.8068L142.199 30.4148C142.089 30.4527 141.932 30.4943 141.727 30.5398C141.527 30.5852 141.28 30.6117 140.989 30.6193C140.473 30.6345 140.009 30.5568 139.597 30.3864C139.184 30.2121 138.856 29.9432 138.614 29.5795C138.375 29.2159 138.258 28.7614 138.261 28.2159V19.6818ZM147.473 30.6705C146.621 30.6705 145.882 30.483 145.257 30.108C144.632 29.733 144.147 29.2083 143.803 28.5341C143.462 27.8598 143.291 27.072 143.291 26.1705C143.291 25.2689 143.462 24.4792 143.803 23.8011C144.147 23.1231 144.632 22.5966 145.257 22.2216C145.882 21.8466 146.621 21.6591 147.473 21.6591C148.325 21.6591 149.064 21.8466 149.689 22.2216C150.314 22.5966 150.797 23.1231 151.138 23.8011C151.482 24.4792 151.655 25.2689 151.655 26.1705C151.655 27.072 151.482 27.8598 151.138 28.5341C150.797 29.2083 150.314 29.733 149.689 30.108C149.064 30.483 148.325 30.6705 147.473 30.6705ZM147.484 29.0227C147.946 29.0227 148.333 28.8958 148.643 28.642C148.954 28.3845 149.185 28.0398 149.337 27.608C149.492 27.1761 149.57 26.6951 149.57 26.1648C149.57 25.6307 149.492 25.1477 149.337 24.7159C149.185 24.2803 148.954 23.9337 148.643 23.6761C148.333 23.4186 147.946 23.2898 147.484 23.2898C147.011 23.2898 146.617 23.4186 146.303 23.6761C145.992 23.9337 145.759 24.2803 145.604 24.7159C145.452 25.1477 145.376 25.6307 145.376 26.1648C145.376 26.6951 145.452 27.1761 145.604 27.608C145.759 28.0398 145.992 28.3845 146.303 28.642C146.617 28.8958 147.011 29.0227 147.484 29.0227Z" fill="white"/>
<path fill-rule="evenodd" clip-rule="evenodd" d="M185 10H215V40H185V10Z" fill="white" fill-opacity="0.01"/>
<path d="M201.4 20.2332L196.129 14.9626C194.466 13.2993 191.733 13.3359 190.024 15.0445C188.316 16.753 188.279 19.4865 189.942 21.1498L194.46 25.6674" stroke="white" stroke-width="2.98282" stroke-linecap="round" stroke-linejoin="round"/>
<path d="M205.564 24.377L210.082 28.8947C211.745 30.558 211.709 33.2915 210 35C208.291 36.7085 205.558 36.7452 203.895 35.0818L198.624 29.8113" stroke="white" stroke-width="2.98282" stroke-linecap="round" stroke-linejoin="round"/>
<path d="M201.318 26.3385C203.027 24.63 203.063 21.8965 201.4 20.2332" stroke="white" stroke-width="2.98282" stroke-linecap="round" stroke-linejoin="round"/>
<path d="M198.624 23.6241C196.916 25.3326 196.879 28.0661 198.542 29.7294" stroke="white" stroke-width="2.98282" stroke-linecap="round" stroke-linejoin="round"/>
</svg>
